<mxfile host="65bd71144e">
    <diagram id="vCrs1-sPmKpTmXe4LVe5" name="Page-1">
        <mxGraphModel dx="2222" dy="1024" grid="1" gridSize="10" guides="1" tooltips="1" connect="1" arrows="1" fold="1" page="0" pageScale="1" pageWidth="850" pageHeight="1100" math="0" shadow="0">
            <root>
                <mxCell id="0"/>
                <mxCell id="1" parent="0"/>
                <mxCell id="14" value="" style="shape=table;html=1;whiteSpace=wrap;startSize=0;&#10;container=1;childLayout=tableLayout;&#10;rowCount=1;" parent="1" vertex="1">
                    <mxGeometry x="80" y="100" width="1590" height="79" as="geometry"/>
                </mxCell>
                <mxCell id="15" value="" style="shape=tableRow;horizontal=0;startSize=0;swimlaneHead=0;swimlaneBody=0;top=0;left=0;bottom=0;right=0;collapsible=0;dropTarget=0;fillColor=none;points=[[0,0.5],[1,0.5]];portConstraint=eastwest;" parent="14" vertex="1">
                    <mxGeometry width="1590" height="79" as="geometry"/>
                </mxCell>
                <mxCell id="16" value="&lt;span style=&quot;font-size: 18px;&quot;&gt;Emp_ID&lt;/span&gt;" style="shape=partialRectangle;html=1;whiteSpace=wrap;connectable=0;fillColor=none;top=0;left=0;bottom=0;right=0;overflow=hidden;" parent="15" vertex="1">
                    <mxGeometry width="95" height="79" as="geometry">
                        <mxRectangle width="95" height="79" as="alternateBounds"/>
                    </mxGeometry>
                </mxCell>
                <mxCell id="17" value="&lt;font style=&quot;font-size: 18px;&quot;&gt;Fname&lt;/font&gt;" style="shape=partialRectangle;connectable=0;fillColor=none;top=0;left=0;bottom=0;right=0;overflow=hidden;align=center;fontStyle=0;verticalAlign=middle;horizontal=1;whiteSpace=wrap;html=1;" parent="15" vertex="1">
                    <mxGeometry x="95" width="125" height="79" as="geometry">
                        <mxRectangle width="125" height="79" as="alternateBounds"/>
                    </mxGeometry>
                </mxCell>
                <mxCell id="18" value="&lt;span style=&quot;font-size: 18px;&quot;&gt;Lname&lt;/span&gt;" style="shape=partialRectangle;html=1;whiteSpace=wrap;connectable=0;fillColor=none;top=0;left=0;bottom=0;right=0;overflow=hidden;" parent="15" vertex="1">
                    <mxGeometry x="220" width="130" height="79" as="geometry">
                        <mxRectangle width="130" height="79" as="alternateBounds"/>
                    </mxGeometry>
                </mxCell>
                <mxCell id="19" value="&lt;font style=&quot;font-size: 18px;&quot;&gt;Email&lt;/font&gt;" style="shape=partialRectangle;html=1;whiteSpace=wrap;connectable=0;fillColor=none;top=0;left=0;bottom=0;right=0;overflow=hidden;" parent="15" vertex="1">
                    <mxGeometry x="350" width="110" height="79" as="geometry">
                        <mxRectangle width="110" height="79" as="alternateBounds"/>
                    </mxGeometry>
                </mxCell>
                <mxCell id="20" value="&lt;font style=&quot;font-size: 18px;&quot;&gt;Salary&lt;/font&gt;" style="shape=partialRectangle;html=1;whiteSpace=wrap;connectable=0;fillColor=none;top=0;left=0;bottom=0;right=0;overflow=hidden;" parent="15" vertex="1">
                    <mxGeometry x="460" width="150" height="79" as="geometry">
                        <mxRectangle width="150" height="79" as="alternateBounds"/>
                    </mxGeometry>
                </mxCell>
                <mxCell id="108" value="&lt;span style=&quot;font-size: 18px;&quot;&gt;DateOfBirth&lt;/span&gt;" style="shape=partialRectangle;html=1;whiteSpace=wrap;connectable=0;fillColor=none;top=0;left=0;bottom=0;right=0;overflow=hidden;" parent="15" vertex="1">
                    <mxGeometry x="610" width="140" height="79" as="geometry">
                        <mxRectangle width="140" height="79" as="alternateBounds"/>
                    </mxGeometry>
                </mxCell>
                <mxCell id="109" value="&lt;span style=&quot;font-size: 18px;&quot;&gt;Bonus&lt;/span&gt;" style="shape=partialRectangle;html=1;whiteSpace=wrap;connectable=0;fillColor=none;top=0;left=0;bottom=0;right=0;overflow=hidden;" parent="15" vertex="1">
                    <mxGeometry x="750" width="140" height="79" as="geometry">
                        <mxRectangle width="140" height="79" as="alternateBounds"/>
                    </mxGeometry>
                </mxCell>
                <mxCell id="110" value="&lt;span style=&quot;font-size: 18px;&quot;&gt;Address&lt;/span&gt;" style="shape=partialRectangle;html=1;whiteSpace=wrap;connectable=0;fillColor=none;top=0;left=0;bottom=0;right=0;overflow=hidden;" parent="15" vertex="1">
                    <mxGeometry x="890" width="140" height="79" as="geometry">
                        <mxRectangle width="140" height="79" as="alternateBounds"/>
                    </mxGeometry>
                </mxCell>
                <mxCell id="111" value="&lt;span style=&quot;font-size: 18px;&quot;&gt;Phone_Number&lt;/span&gt;" style="shape=partialRectangle;html=1;whiteSpace=wrap;connectable=0;fillColor=none;top=0;left=0;bottom=0;right=0;overflow=hidden;" parent="15" vertex="1">
                    <mxGeometry x="1030" width="140" height="79" as="geometry">
                        <mxRectangle width="140" height="79" as="alternateBounds"/>
                    </mxGeometry>
                </mxCell>
                <mxCell id="112" value="&lt;span style=&quot;font-size: 18px;&quot;&gt;Supervisor_Id&lt;/span&gt;" style="shape=partialRectangle;html=1;whiteSpace=wrap;connectable=0;fillColor=none;top=0;left=0;bottom=0;right=0;overflow=hidden;" parent="15" vertex="1">
                    <mxGeometry x="1170" width="140" height="79" as="geometry">
                        <mxRectangle width="140" height="79" as="alternateBounds"/>
                    </mxGeometry>
                </mxCell>
                <mxCell id="113" value="&lt;span style=&quot;font-size: 18px;&quot;&gt;Floor_Id&lt;/span&gt;" style="shape=partialRectangle;html=1;whiteSpace=wrap;connectable=0;fillColor=none;top=0;left=0;bottom=0;right=0;overflow=hidden;" parent="15" vertex="1">
                    <mxGeometry x="1310" width="140" height="79" as="geometry">
                        <mxRectangle width="140" height="79" as="alternateBounds"/>
                    </mxGeometry>
                </mxCell>
                <mxCell id="114" value="&lt;span style=&quot;font-size: 18px;&quot;&gt;Hiring_Date&lt;/span&gt;" style="shape=partialRectangle;html=1;whiteSpace=wrap;connectable=0;fillColor=none;top=0;left=0;bottom=0;right=0;overflow=hidden;" parent="15" vertex="1">
                    <mxGeometry x="1450" width="140" height="79" as="geometry">
                        <mxRectangle width="140" height="79" as="alternateBounds"/>
                    </mxGeometry>
                </mxCell>
                <mxCell id="163" value="" style="endArrow=classic;html=1;exitX=0.773;exitY=-0.047;exitDx=0;exitDy=0;exitPerimeter=0;" parent="14" source="15" edge="1">
                    <mxGeometry width="50" height="50" relative="1" as="geometry">
                        <mxPoint x="1230" y="-70" as="sourcePoint"/>
                        <mxPoint x="50" y="-4" as="targetPoint"/>
                        <Array as="points">
                            <mxPoint x="1230" y="-40"/>
                            <mxPoint x="50" y="-40"/>
                        </Array>
                    </mxGeometry>
                </mxCell>
                <mxCell id="21" value="" style="shape=table;html=1;whiteSpace=wrap;startSize=0;&#10;container=1;childLayout=tableLayout;&#10;rowCount=1;" parent="1" vertex="1">
                    <mxGeometry x="80" y="420" width="240" height="79" as="geometry"/>
                </mxCell>
                <mxCell id="22" value="" style="shape=tableRow;horizontal=0;startSize=0;swimlaneHead=0;swimlaneBody=0;top=0;left=0;bottom=0;right=0;collapsible=0;dropTarget=0;fillColor=none;points=[[0,0.5],[1,0.5]];portConstraint=eastwest;" parent="21" vertex="1">
                    <mxGeometry width="240" height="79" as="geometry"/>
                </mxCell>
                <mxCell id="23" value="&lt;font style=&quot;font-size: 18px;&quot;&gt;Code&lt;/font&gt;" style="shape=partialRectangle;html=1;whiteSpace=wrap;connectable=0;fillColor=none;top=0;left=0;bottom=0;right=0;overflow=hidden;" parent="22" vertex="1">
                    <mxGeometry width="97" height="79" as="geometry">
                        <mxRectangle width="97" height="79" as="alternateBounds"/>
                    </mxGeometry>
                </mxCell>
                <mxCell id="24" value="&lt;font style=&quot;font-size: 18px;&quot;&gt;Floor_Number&lt;/font&gt;" style="shape=partialRectangle;html=1;whiteSpace=wrap;connectable=0;fillColor=none;top=0;left=0;bottom=0;right=0;overflow=hidden;" parent="22" vertex="1">
                    <mxGeometry x="97" width="143" height="79" as="geometry">
                        <mxRectangle width="143" height="79" as="alternateBounds"/>
                    </mxGeometry>
                </mxCell>
                <mxCell id="26" value="" style="shape=table;html=1;whiteSpace=wrap;startSize=0;&#10;container=1;childLayout=tableLayout;&#10;rowCount=1;" parent="1" vertex="1">
                    <mxGeometry x="80" y="580" width="730" height="79" as="geometry"/>
                </mxCell>
                <mxCell id="27" value="" style="shape=tableRow;horizontal=0;startSize=0;swimlaneHead=0;swimlaneBody=0;top=0;left=0;bottom=0;right=0;collapsible=0;dropTarget=0;fillColor=none;points=[[0,0.5],[1,0.5]];portConstraint=eastwest;" parent="26" vertex="1">
                    <mxGeometry width="730" height="79" as="geometry"/>
                </mxCell>
                <mxCell id="28" value="&lt;font style=&quot;font-size: 18px;&quot;&gt;Book_Id&lt;/font&gt;" style="shape=partialRectangle;html=1;whiteSpace=wrap;connectable=0;fillColor=none;top=0;left=0;bottom=0;right=0;overflow=hidden;" parent="27" vertex="1">
                    <mxGeometry width="140" height="79" as="geometry">
                        <mxRectangle width="140" height="79" as="alternateBounds"/>
                    </mxGeometry>
                </mxCell>
                <mxCell id="29" value="&lt;font style=&quot;font-size: 18px;&quot;&gt;Title&lt;/font&gt;" style="shape=partialRectangle;html=1;whiteSpace=wrap;connectable=0;fillColor=none;top=0;left=0;bottom=0;right=0;overflow=hidden;" parent="27" vertex="1">
                    <mxGeometry x="140" width="110" height="79" as="geometry">
                        <mxRectangle width="110" height="79" as="alternateBounds"/>
                    </mxGeometry>
                </mxCell>
                <mxCell id="30" value="&lt;font style=&quot;font-size: 18px;&quot;&gt;Publisher_Id&lt;/font&gt;" style="shape=partialRectangle;html=1;whiteSpace=wrap;connectable=0;fillColor=none;top=0;left=0;bottom=0;right=0;overflow=hidden;" parent="27" vertex="1">
                    <mxGeometry x="250" width="180" height="79" as="geometry">
                        <mxRectangle width="180" height="79" as="alternateBounds"/>
                    </mxGeometry>
                </mxCell>
                <mxCell id="31" value="&lt;font style=&quot;font-size: 18px;&quot;&gt;Category_Id&lt;/font&gt;" style="shape=partialRectangle;html=1;whiteSpace=wrap;connectable=0;fillColor=none;top=0;left=0;bottom=0;right=0;overflow=hidden;" parent="27" vertex="1">
                    <mxGeometry x="430" width="150" height="79" as="geometry">
                        <mxRectangle width="150" height="79" as="alternateBounds"/>
                    </mxGeometry>
                </mxCell>
                <mxCell id="32" value="&lt;span style=&quot;font-size: 18px;&quot;&gt;Shelf_Code&lt;/span&gt;" style="shape=partialRectangle;html=1;whiteSpace=wrap;connectable=0;fillColor=none;top=0;left=0;bottom=0;right=0;overflow=hidden;" parent="27" vertex="1">
                    <mxGeometry x="580" width="150" height="79" as="geometry">
                        <mxRectangle width="150" height="79" as="alternateBounds"/>
                    </mxGeometry>
                </mxCell>
                <mxCell id="33" value="Employee" style="text;strokeColor=none;fillColor=none;html=1;fontSize=24;fontStyle=1;verticalAlign=middle;align=center;" parent="1" vertex="1">
                    <mxGeometry y="40" width="120" height="40" as="geometry"/>
                </mxCell>
                <mxCell id="34" value="Floor" style="text;strokeColor=none;fillColor=none;html=1;fontSize=24;fontStyle=1;verticalAlign=middle;align=center;" parent="1" vertex="1">
                    <mxGeometry y="200" width="70" height="40" as="geometry"/>
                </mxCell>
                <mxCell id="35" value="Shelf" style="text;strokeColor=none;fillColor=none;html=1;fontSize=24;fontStyle=1;verticalAlign=middle;align=center;" parent="1" vertex="1">
                    <mxGeometry y="360" width="70" height="40" as="geometry"/>
                </mxCell>
                <mxCell id="36" value="Book" style="text;strokeColor=none;fillColor=none;html=1;fontSize=24;fontStyle=1;verticalAlign=middle;align=center;" parent="1" vertex="1">
                    <mxGeometry y="520" width="90" height="40" as="geometry"/>
                </mxCell>
                <mxCell id="37" value="Author" style="text;strokeColor=none;fillColor=none;html=1;fontSize=24;fontStyle=1;verticalAlign=middle;align=center;" parent="1" vertex="1">
                    <mxGeometry y="680" width="90" height="40" as="geometry"/>
                </mxCell>
                <mxCell id="45" value="" style="shape=table;html=1;whiteSpace=wrap;startSize=0;&#10;container=1;childLayout=tableLayout;&#10;rowCount=1;" parent="1" vertex="1">
                    <mxGeometry x="80" y="740" width="300" height="79" as="geometry"/>
                </mxCell>
                <mxCell id="46" value="" style="shape=tableRow;horizontal=0;startSize=0;swimlaneHead=0;swimlaneBody=0;top=0;left=0;bottom=0;right=0;collapsible=0;dropTarget=0;fillColor=none;points=[[0,0.5],[1,0.5]];portConstraint=eastwest;" parent="45" vertex="1">
                    <mxGeometry width="300" height="79" as="geometry"/>
                </mxCell>
                <mxCell id="47" value="&lt;font style=&quot;font-size: 18px;&quot;&gt;Author_Id&lt;/font&gt;" style="shape=partialRectangle;html=1;whiteSpace=wrap;connectable=0;fillColor=none;top=0;left=0;bottom=0;right=0;overflow=hidden;" parent="46" vertex="1">
                    <mxGeometry width="123" height="79" as="geometry">
                        <mxRectangle width="123" height="79" as="alternateBounds"/>
                    </mxGeometry>
                </mxCell>
                <mxCell id="48" value="&lt;font style=&quot;font-size: 18px;&quot;&gt;Author_Name&lt;/font&gt;" style="shape=partialRectangle;html=1;whiteSpace=wrap;connectable=0;fillColor=none;top=0;left=0;bottom=0;right=0;overflow=hidden;" parent="46" vertex="1">
                    <mxGeometry x="123" width="177" height="79" as="geometry">
                        <mxRectangle width="177" height="79" as="alternateBounds"/>
                    </mxGeometry>
                </mxCell>
                <mxCell id="52" value="Publisher" style="text;strokeColor=none;fillColor=none;html=1;fontSize=24;fontStyle=1;verticalAlign=middle;align=center;" parent="1" vertex="1">
                    <mxGeometry y="880" width="130" height="40" as="geometry"/>
                </mxCell>
                <mxCell id="62" value="" style="endArrow=none;html=1;fontSize=18;" parent="1" edge="1">
                    <mxGeometry width="50" height="50" relative="1" as="geometry">
                        <mxPoint x="100" y="639" as="sourcePoint"/>
                        <mxPoint x="200" y="639" as="targetPoint"/>
                    </mxGeometry>
                </mxCell>
                <mxCell id="63" value="" style="endArrow=none;html=1;fontSize=18;" parent="1" edge="1">
                    <mxGeometry width="50" height="50" relative="1" as="geometry">
                        <mxPoint x="100" y="800" as="sourcePoint"/>
                        <mxPoint x="180" y="800" as="targetPoint"/>
                    </mxGeometry>
                </mxCell>
                <mxCell id="64" value="" style="endArrow=none;html=1;fontSize=18;" parent="1" edge="1">
                    <mxGeometry width="50" height="50" relative="1" as="geometry">
                        <mxPoint x="90" y="480" as="sourcePoint"/>
                        <mxPoint x="170" y="480" as="targetPoint"/>
                    </mxGeometry>
                </mxCell>
                <mxCell id="66" value="" style="endArrow=none;html=1;fontSize=18;" parent="1" edge="1">
                    <mxGeometry width="50" height="50" relative="1" as="geometry">
                        <mxPoint x="90" y="160" as="sourcePoint"/>
                        <mxPoint x="160" y="160" as="targetPoint"/>
                    </mxGeometry>
                </mxCell>
                <mxCell id="72" value="" style="endArrow=none;dashed=1;html=1;dashPattern=1 3;strokeWidth=2;fontSize=18;entryX=0.958;entryY=0.759;entryDx=0;entryDy=0;entryPerimeter=0;" parent="1" target="22" edge="1">
                    <mxGeometry x="97" width="50" height="50" relative="1" as="geometry">
                        <mxPoint x="190" y="480" as="sourcePoint"/>
                        <mxPoint x="265" y="480" as="targetPoint"/>
                    </mxGeometry>
                </mxCell>
                <mxCell id="74" value="" style="endArrow=none;dashed=1;html=1;dashPattern=1 3;strokeWidth=2;fontSize=18;" parent="1" edge="1">
                    <mxGeometry width="50" height="50" relative="1" as="geometry">
                        <mxPoint x="550" y="640" as="sourcePoint"/>
                        <mxPoint x="630" y="640" as="targetPoint"/>
                    </mxGeometry>
                </mxCell>
                <mxCell id="78" value="Category" style="text;strokeColor=none;fillColor=none;html=1;fontSize=24;fontStyle=1;verticalAlign=middle;align=center;" parent="1" vertex="1">
                    <mxGeometry x="5" y="1080" width="110" height="40" as="geometry"/>
                </mxCell>
                <mxCell id="79" value="User" style="text;strokeColor=none;fillColor=none;html=1;fontSize=24;fontStyle=1;verticalAlign=middle;align=center;" parent="1" vertex="1">
                    <mxGeometry y="1280" width="70" height="40" as="geometry"/>
                </mxCell>
                <mxCell id="80" value="Borrowed_Book" style="text;strokeColor=none;fillColor=none;html=1;fontSize=24;fontStyle=1;verticalAlign=middle;align=center;" parent="1" vertex="1">
                    <mxGeometry x="5" y="1480" width="195" height="40" as="geometry"/>
                </mxCell>
                <mxCell id="90" value="" style="shape=table;html=1;whiteSpace=wrap;startSize=0;&#10;container=1;childLayout=tableLayout;&#10;rowCount=1;" parent="1" vertex="1">
                    <mxGeometry x="80" y="1360" width="740" height="79" as="geometry"/>
                </mxCell>
                <mxCell id="91" value="" style="shape=tableRow;horizontal=0;startSize=0;swimlaneHead=0;swimlaneBody=0;top=0;left=0;bottom=0;right=0;collapsible=0;dropTarget=0;fillColor=none;points=[[0,0.5],[1,0.5]];portConstraint=eastwest;" parent="90" vertex="1">
                    <mxGeometry width="740" height="79" as="geometry"/>
                </mxCell>
                <mxCell id="92" value="&lt;font style=&quot;font-size: 18px;&quot;&gt;SSN&lt;/font&gt;" style="shape=partialRectangle;html=1;whiteSpace=wrap;connectable=0;fillColor=none;top=0;left=0;bottom=0;right=0;overflow=hidden;" parent="91" vertex="1">
                    <mxGeometry width="130" height="79" as="geometry">
                        <mxRectangle width="130" height="79" as="alternateBounds"/>
                    </mxGeometry>
                </mxCell>
                <mxCell id="93" value="&lt;font style=&quot;font-size: 18px;&quot;&gt;Name&lt;/font&gt;" style="shape=partialRectangle;html=1;whiteSpace=wrap;connectable=0;fillColor=none;top=0;left=0;bottom=0;right=0;overflow=hidden;" parent="91" vertex="1">
                    <mxGeometry x="130" width="130" height="79" as="geometry">
                        <mxRectangle width="130" height="79" as="alternateBounds"/>
                    </mxGeometry>
                </mxCell>
                <mxCell id="94" value="&lt;font style=&quot;font-size: 18px;&quot;&gt;Email&lt;/font&gt;" style="shape=partialRectangle;html=1;whiteSpace=wrap;connectable=0;fillColor=none;top=0;left=0;bottom=0;right=0;overflow=hidden;" parent="91" vertex="1">
                    <mxGeometry x="260" width="160" height="79" as="geometry">
                        <mxRectangle width="160" height="79" as="alternateBounds"/>
                    </mxGeometry>
                </mxCell>
                <mxCell id="95" value="&lt;font style=&quot;font-size: 18px;&quot;&gt;Phones&lt;/font&gt;" style="shape=partialRectangle;html=1;whiteSpace=wrap;connectable=0;fillColor=none;top=0;left=0;bottom=0;right=0;overflow=hidden;" parent="91" vertex="1">
                    <mxGeometry x="420" width="150" height="79" as="geometry">
                        <mxRectangle width="150" height="79" as="alternateBounds"/>
                    </mxGeometry>
                </mxCell>
                <mxCell id="96" value="&lt;span style=&quot;font-size: 18px;&quot;&gt;Employee_Id&lt;/span&gt;" style="shape=partialRectangle;html=1;whiteSpace=wrap;connectable=0;fillColor=none;top=0;left=0;bottom=0;right=0;overflow=hidden;" parent="91" vertex="1">
                    <mxGeometry x="570" width="170" height="79" as="geometry">
                        <mxRectangle width="170" height="79" as="alternateBounds"/>
                    </mxGeometry>
                </mxCell>
                <mxCell id="158" value="" style="endArrow=none;dashed=1;html=1;dashPattern=1 3;strokeWidth=2;fontSize=18;entryX=0.973;entryY=0.759;entryDx=0;entryDy=0;entryPerimeter=0;exitX=0.797;exitY=0.759;exitDx=0;exitDy=0;exitPerimeter=0;" parent="90" source="91" target="91" edge="1">
                    <mxGeometry width="50" height="50" relative="1" as="geometry">
                        <mxPoint x="610" y="60" as="sourcePoint"/>
                        <mxPoint x="690" y="60" as="targetPoint"/>
                    </mxGeometry>
                </mxCell>
                <mxCell id="99" value="" style="shape=table;html=1;whiteSpace=wrap;startSize=0;&#10;container=1;childLayout=tableLayout;&#10;rowCount=1;" parent="1" vertex="1">
                    <mxGeometry x="80" y="1560" width="980" height="79" as="geometry"/>
                </mxCell>
                <mxCell id="100" value="" style="shape=tableRow;horizontal=0;startSize=0;swimlaneHead=0;swimlaneBody=0;top=0;left=0;bottom=0;right=0;collapsible=0;dropTarget=0;fillColor=none;points=[[0,0.5],[1,0.5]];portConstraint=eastwest;" parent="99" vertex="1">
                    <mxGeometry width="980" height="79" as="geometry"/>
                </mxCell>
                <mxCell id="101" value="&lt;font style=&quot;font-size: 18px;&quot;&gt;Borrowing_Id&lt;/font&gt;" style="shape=partialRectangle;html=1;whiteSpace=wrap;connectable=0;fillColor=none;top=0;left=0;bottom=0;right=0;overflow=hidden;" parent="100" vertex="1">
                    <mxGeometry width="130" height="79" as="geometry">
                        <mxRectangle width="130" height="79" as="alternateBounds"/>
                    </mxGeometry>
                </mxCell>
                <mxCell id="102" value="&lt;span style=&quot;font-size: 18px;&quot;&gt;Date_Borrowed&lt;/span&gt;" style="shape=partialRectangle;html=1;whiteSpace=wrap;connectable=0;fillColor=none;top=0;left=0;bottom=0;right=0;overflow=hidden;" parent="100" vertex="1">
                    <mxGeometry x="130" width="150" height="79" as="geometry">
                        <mxRectangle width="150" height="79" as="alternateBounds"/>
                    </mxGeometry>
                </mxCell>
                <mxCell id="103" value="&lt;font style=&quot;font-size: 18px;&quot;&gt;Due_Date&lt;/font&gt;" style="shape=partialRectangle;html=1;whiteSpace=wrap;connectable=0;fillColor=none;top=0;left=0;bottom=0;right=0;overflow=hidden;" parent="100" vertex="1">
                    <mxGeometry x="280" width="120" height="79" as="geometry">
                        <mxRectangle width="120" height="79" as="alternateBounds"/>
                    </mxGeometry>
                </mxCell>
                <mxCell id="104" value="&lt;font style=&quot;font-size: 18px;&quot;&gt;Amount_Paid&lt;/font&gt;" style="shape=partialRectangle;html=1;whiteSpace=wrap;connectable=0;fillColor=none;top=0;left=0;bottom=0;right=0;overflow=hidden;" parent="100" vertex="1">
                    <mxGeometry x="400" width="150" height="79" as="geometry">
                        <mxRectangle width="150" height="79" as="alternateBounds"/>
                    </mxGeometry>
                </mxCell>
                <mxCell id="105" value="&lt;span style=&quot;font-size: 18px;&quot;&gt;User_SSN&lt;/span&gt;" style="shape=partialRectangle;html=1;whiteSpace=wrap;connectable=0;fillColor=none;top=0;left=0;bottom=0;right=0;overflow=hidden;" parent="100" vertex="1">
                    <mxGeometry x="550" width="190" height="79" as="geometry">
                        <mxRectangle width="190" height="79" as="alternateBounds"/>
                    </mxGeometry>
                </mxCell>
                <mxCell id="106" value="&lt;font style=&quot;font-size: 18px;&quot;&gt;Book_Id&lt;/font&gt;" style="shape=partialRectangle;html=1;whiteSpace=wrap;connectable=0;fillColor=none;top=0;left=0;bottom=0;right=0;overflow=hidden;" parent="100" vertex="1">
                    <mxGeometry x="740" width="120" height="79" as="geometry">
                        <mxRectangle width="120" height="79" as="alternateBounds"/>
                    </mxGeometry>
                </mxCell>
                <mxCell id="107" value="&lt;font style=&quot;font-size: 18px;&quot;&gt;Employee_Id&lt;/font&gt;" style="shape=partialRectangle;html=1;whiteSpace=wrap;connectable=0;fillColor=none;top=0;left=0;bottom=0;right=0;overflow=hidden;" parent="100" vertex="1">
                    <mxGeometry x="860" width="120" height="79" as="geometry">
                        <mxRectangle width="120" height="79" as="alternateBounds"/>
                    </mxGeometry>
                </mxCell>
                <mxCell id="115" value="" style="endArrow=none;dashed=1;html=1;dashPattern=1 3;strokeWidth=2;fontSize=18;" parent="1" edge="1">
                    <mxGeometry x="1170" width="50" height="50" relative="1" as="geometry">
                        <mxPoint x="1280" y="160" as="sourcePoint"/>
                        <mxPoint x="1370" y="160" as="targetPoint"/>
                    </mxGeometry>
                </mxCell>
                <mxCell id="116" value="" style="endArrow=none;dashed=1;html=1;dashPattern=1 3;strokeWidth=2;fontSize=18;" parent="1" edge="1">
                    <mxGeometry x="1170" width="50" height="50" relative="1" as="geometry">
                        <mxPoint x="1420" y="160" as="sourcePoint"/>
                        <mxPoint x="1510" y="160" as="targetPoint"/>
                    </mxGeometry>
                </mxCell>
                <mxCell id="117" value="" style="shape=table;html=1;whiteSpace=wrap;startSize=0;&#10;container=1;childLayout=tableLayout;&#10;rowCount=1;" parent="1" vertex="1">
                    <mxGeometry x="80" y="250" width="490" height="79" as="geometry"/>
                </mxCell>
                <mxCell id="118" value="" style="shape=tableRow;horizontal=0;startSize=0;swimlaneHead=0;swimlaneBody=0;top=0;left=0;bottom=0;right=0;collapsible=0;dropTarget=0;fillColor=none;points=[[0,0.5],[1,0.5]];portConstraint=eastwest;" parent="117" vertex="1">
                    <mxGeometry width="490" height="79" as="geometry"/>
                </mxCell>
                <mxCell id="119" value="&lt;font style=&quot;font-size: 18px;&quot;&gt;Floor_Number&lt;/font&gt;" style="shape=partialRectangle;html=1;whiteSpace=wrap;connectable=0;fillColor=none;top=0;left=0;bottom=0;right=0;overflow=hidden;" parent="118" vertex="1">
                    <mxGeometry width="180" height="79" as="geometry">
                        <mxRectangle width="180" height="79" as="alternateBounds"/>
                    </mxGeometry>
                </mxCell>
                <mxCell id="120" value="&lt;font style=&quot;font-size: 18px;&quot;&gt;Number_Of_blocks&lt;/font&gt;" style="shape=partialRectangle;html=1;whiteSpace=wrap;connectable=0;fillColor=none;top=0;left=0;bottom=0;right=0;overflow=hidden;" parent="118" vertex="1">
                    <mxGeometry x="180" width="190" height="79" as="geometry">
                        <mxRectangle width="190" height="79" as="alternateBounds"/>
                    </mxGeometry>
                </mxCell>
                <mxCell id="121" value="&lt;font style=&quot;font-size: 18px;&quot;&gt;Manager_Id&lt;/font&gt;" style="shape=partialRectangle;html=1;whiteSpace=wrap;connectable=0;fillColor=none;top=0;left=0;bottom=0;right=0;overflow=hidden;" parent="118" vertex="1">
                    <mxGeometry x="370" width="120" height="79" as="geometry">
                        <mxRectangle width="120" height="79" as="alternateBounds"/>
                    </mxGeometry>
                </mxCell>
                <mxCell id="124" value="" style="endArrow=none;html=1;fontSize=18;" parent="1" edge="1">
                    <mxGeometry width="50" height="50" relative="1" as="geometry">
                        <mxPoint x="110" y="310" as="sourcePoint"/>
                        <mxPoint x="240" y="310" as="targetPoint"/>
                    </mxGeometry>
                </mxCell>
                <mxCell id="125" value="" style="endArrow=none;dashed=1;html=1;dashPattern=1 3;strokeWidth=2;fontSize=18;" parent="1" edge="1">
                    <mxGeometry x="1170" width="50" height="50" relative="1" as="geometry">
                        <mxPoint x="470" y="310" as="sourcePoint"/>
                        <mxPoint x="560" y="310" as="targetPoint"/>
                    </mxGeometry>
                </mxCell>
                <mxCell id="126" value="" style="endArrow=none;dashed=1;html=1;dashPattern=1 3;strokeWidth=2;fontSize=18;" parent="1" edge="1">
                    <mxGeometry width="50" height="50" relative="1" as="geometry">
                        <mxPoint x="380" y="640" as="sourcePoint"/>
                        <mxPoint x="460" y="640" as="targetPoint"/>
                    </mxGeometry>
                </mxCell>
                <mxCell id="127" value="" style="endArrow=none;dashed=1;html=1;dashPattern=1 3;strokeWidth=2;fontSize=18;" parent="1" edge="1">
                    <mxGeometry width="50" height="50" relative="1" as="geometry">
                        <mxPoint x="700" y="640" as="sourcePoint"/>
                        <mxPoint x="780" y="640" as="targetPoint"/>
                    </mxGeometry>
                </mxCell>
                <mxCell id="128" value="" style="shape=table;html=1;whiteSpace=wrap;startSize=0;&#10;container=1;childLayout=tableLayout;&#10;rowCount=1;" parent="1" vertex="1">
                    <mxGeometry x="80" y="960" width="300" height="79" as="geometry"/>
                </mxCell>
                <mxCell id="129" value="" style="shape=tableRow;horizontal=0;startSize=0;swimlaneHead=0;swimlaneBody=0;top=0;left=0;bottom=0;right=0;collapsible=0;dropTarget=0;fillColor=none;points=[[0,0.5],[1,0.5]];portConstraint=eastwest;" parent="128" vertex="1">
                    <mxGeometry width="300" height="79" as="geometry"/>
                </mxCell>
                <mxCell id="130" value="&lt;font style=&quot;font-size: 18px;&quot;&gt;Publisher_Id&lt;/font&gt;" style="shape=partialRectangle;html=1;whiteSpace=wrap;connectable=0;fillColor=none;top=0;left=0;bottom=0;right=0;overflow=hidden;" parent="129" vertex="1">
                    <mxGeometry width="123" height="79" as="geometry">
                        <mxRectangle width="123" height="79" as="alternateBounds"/>
                    </mxGeometry>
                </mxCell>
                <mxCell id="131" value="&lt;font style=&quot;font-size: 18px;&quot;&gt;Publisher_Name&lt;/font&gt;" style="shape=partialRectangle;html=1;whiteSpace=wrap;connectable=0;fillColor=none;top=0;left=0;bottom=0;right=0;overflow=hidden;" parent="129" vertex="1">
                    <mxGeometry x="123" width="177" height="79" as="geometry">
                        <mxRectangle width="177" height="79" as="alternateBounds"/>
                    </mxGeometry>
                </mxCell>
                <mxCell id="132" value="" style="endArrow=none;html=1;fontSize=18;" parent="1" edge="1">
                    <mxGeometry width="50" height="50" relative="1" as="geometry">
                        <mxPoint x="90" y="1019" as="sourcePoint"/>
                        <mxPoint x="190" y="1019" as="targetPoint"/>
                    </mxGeometry>
                </mxCell>
                <mxCell id="133" value="" style="shape=table;html=1;whiteSpace=wrap;startSize=0;&#10;container=1;childLayout=tableLayout;&#10;rowCount=1;" parent="1" vertex="1">
                    <mxGeometry x="80" y="1160" width="300" height="79" as="geometry"/>
                </mxCell>
                <mxCell id="134" value="" style="shape=tableRow;horizontal=0;startSize=0;swimlaneHead=0;swimlaneBody=0;top=0;left=0;bottom=0;right=0;collapsible=0;dropTarget=0;fillColor=none;points=[[0,0.5],[1,0.5]];portConstraint=eastwest;" parent="133" vertex="1">
                    <mxGeometry width="300" height="79" as="geometry"/>
                </mxCell>
                <mxCell id="135" value="&lt;font style=&quot;font-size: 18px;&quot;&gt;Category_Id&lt;/font&gt;" style="shape=partialRectangle;html=1;whiteSpace=wrap;connectable=0;fillColor=none;top=0;left=0;bottom=0;right=0;overflow=hidden;" parent="134" vertex="1">
                    <mxGeometry width="123" height="79" as="geometry">
                        <mxRectangle width="123" height="79" as="alternateBounds"/>
                    </mxGeometry>
                </mxCell>
                <mxCell id="136" value="&lt;font style=&quot;font-size: 18px;&quot;&gt;Cat_Name&lt;/font&gt;" style="shape=partialRectangle;html=1;whiteSpace=wrap;connectable=0;fillColor=none;top=0;left=0;bottom=0;right=0;overflow=hidden;" parent="134" vertex="1">
                    <mxGeometry x="123" width="177" height="79" as="geometry">
                        <mxRectangle width="177" height="79" as="alternateBounds"/>
                    </mxGeometry>
                </mxCell>
                <mxCell id="137" value="" style="endArrow=none;html=1;fontSize=18;" parent="1" edge="1">
                    <mxGeometry width="50" height="50" relative="1" as="geometry">
                        <mxPoint x="100" y="1220" as="sourcePoint"/>
                        <mxPoint x="180" y="1220" as="targetPoint"/>
                    </mxGeometry>
                </mxCell>
                <mxCell id="138" value="" style="endArrow=none;html=1;fontSize=18;entryX=0.122;entryY=0.759;entryDx=0;entryDy=0;entryPerimeter=0;" parent="1" target="100" edge="1">
                    <mxGeometry width="50" height="50" relative="1" as="geometry">
                        <mxPoint x="90" y="1620" as="sourcePoint"/>
                        <mxPoint x="180" y="1620" as="targetPoint"/>
                    </mxGeometry>
                </mxCell>
                <mxCell id="139" value="" style="endArrow=none;dashed=1;html=1;dashPattern=1 3;strokeWidth=2;fontSize=18;" parent="1" edge="1">
                    <mxGeometry width="50" height="50" relative="1" as="geometry">
                        <mxPoint x="690" y="1620" as="sourcePoint"/>
                        <mxPoint x="770" y="1620" as="targetPoint"/>
                    </mxGeometry>
                </mxCell>
                <mxCell id="140" value="" style="endArrow=none;dashed=1;html=1;dashPattern=1 3;strokeWidth=2;fontSize=18;" parent="1" edge="1">
                    <mxGeometry width="50" height="50" relative="1" as="geometry">
                        <mxPoint x="840" y="1620" as="sourcePoint"/>
                        <mxPoint x="920" y="1620" as="targetPoint"/>
                    </mxGeometry>
                </mxCell>
                <mxCell id="141" value="" style="endArrow=none;dashed=1;html=1;dashPattern=1 3;strokeWidth=2;fontSize=18;" parent="1" edge="1">
                    <mxGeometry width="50" height="50" relative="1" as="geometry">
                        <mxPoint x="960" y="1620" as="sourcePoint"/>
                        <mxPoint x="1040" y="1620" as="targetPoint"/>
                    </mxGeometry>
                </mxCell>
                <mxCell id="142" value="Book_Author" style="text;strokeColor=none;fillColor=none;html=1;fontSize=24;fontStyle=1;verticalAlign=middle;align=center;" parent="1" vertex="1">
                    <mxGeometry x="5" y="1680" width="165" height="40" as="geometry"/>
                </mxCell>
                <mxCell id="143" value="" style="shape=table;html=1;whiteSpace=wrap;startSize=0;&#10;container=1;childLayout=tableLayout;&#10;rowCount=1;" parent="1" vertex="1">
                    <mxGeometry x="80" y="1760" width="280" height="79" as="geometry"/>
                </mxCell>
                <mxCell id="144" value="" style="shape=tableRow;horizontal=0;startSize=0;swimlaneHead=0;swimlaneBody=0;top=0;left=0;bottom=0;right=0;collapsible=0;dropTarget=0;fillColor=none;points=[[0,0.5],[1,0.5]];portConstraint=eastwest;" parent="143" vertex="1">
                    <mxGeometry width="280" height="79" as="geometry"/>
                </mxCell>
                <mxCell id="145" value="&lt;font style=&quot;font-size: 18px;&quot;&gt;Book_Id&lt;/font&gt;" style="shape=partialRectangle;html=1;whiteSpace=wrap;connectable=0;fillColor=none;top=0;left=0;bottom=0;right=0;overflow=hidden;" parent="144" vertex="1">
                    <mxGeometry width="130" height="79" as="geometry">
                        <mxRectangle width="130" height="79" as="alternateBounds"/>
                    </mxGeometry>
                </mxCell>
                <mxCell id="146" value="&lt;span style=&quot;font-size: 18px;&quot;&gt;Author_Id&lt;/span&gt;" style="shape=partialRectangle;html=1;whiteSpace=wrap;connectable=0;fillColor=none;top=0;left=0;bottom=0;right=0;overflow=hidden;" parent="144" vertex="1">
                    <mxGeometry x="130" width="150" height="79" as="geometry">
                        <mxRectangle width="150" height="79" as="alternateBounds"/>
                    </mxGeometry>
                </mxCell>
                <mxCell id="152" value="" style="endArrow=none;html=1;fontSize=18;entryX=0.893;entryY=0.886;entryDx=0;entryDy=0;entryPerimeter=0;" parent="1" target="144" edge="1">
                    <mxGeometry width="50" height="50" relative="1" as="geometry">
                        <mxPoint x="90" y="1830" as="sourcePoint"/>
                        <mxPoint x="170" y="1830" as="targetPoint"/>
                    </mxGeometry>
                </mxCell>
                <mxCell id="156" value="" style="endArrow=none;dashed=1;html=1;dashPattern=1 3;strokeWidth=2;fontSize=18;" parent="1" edge="1">
                    <mxGeometry width="50" height="50" relative="1" as="geometry">
                        <mxPoint x="110" y="1820" as="sourcePoint"/>
                        <mxPoint x="190" y="1820" as="targetPoint"/>
                    </mxGeometry>
                </mxCell>
                <mxCell id="157" value="" style="endArrow=none;dashed=1;html=1;dashPattern=1 3;strokeWidth=2;fontSize=18;" parent="1" edge="1">
                    <mxGeometry width="50" height="50" relative="1" as="geometry">
                        <mxPoint x="240" y="1820" as="sourcePoint"/>
                        <mxPoint x="320" y="1820" as="targetPoint"/>
                    </mxGeometry>
                </mxCell>
                <mxCell id="159" value="" style="endArrow=none;html=1;fontSize=18;" parent="1" edge="1">
                    <mxGeometry width="50" height="50" relative="1" as="geometry">
                        <mxPoint x="100" y="1420" as="sourcePoint"/>
                        <mxPoint x="180" y="1420" as="targetPoint"/>
                    </mxGeometry>
                </mxCell>
                <mxCell id="161" value="" style="endArrow=classic;html=1;exitX=0.902;exitY=-0.036;exitDx=0;exitDy=0;exitPerimeter=0;entryX=0.031;entryY=1.096;entryDx=0;entryDy=0;entryPerimeter=0;" parent="1" source="118" target="15" edge="1">
                    <mxGeometry width="50" height="50" relative="1" as="geometry">
                        <mxPoint x="450" y="350" as="sourcePoint"/>
                        <mxPoint x="500" y="300" as="targetPoint"/>
                        <Array as="points">
                            <mxPoint x="520" y="230"/>
                            <mxPoint x="129" y="230"/>
                        </Array>
                    </mxGeometry>
                </mxCell>
                <mxCell id="162" value="" style="endArrow=classic;html=1;exitX=0.76;exitY=0.011;exitDx=0;exitDy=0;exitPerimeter=0;" parent="1" source="22" edge="1">
                    <mxGeometry width="50" height="50" relative="1" as="geometry">
                        <mxPoint x="390" y="350" as="sourcePoint"/>
                        <mxPoint x="157" y="330" as="targetPoint"/>
                        <Array as="points">
                            <mxPoint x="262" y="360"/>
                            <mxPoint x="157" y="360"/>
                        </Array>
                    </mxGeometry>
                </mxCell>
                <mxCell id="164" value="" style="endArrow=classic;html=1;exitX=0.864;exitY=1.009;exitDx=0;exitDy=0;exitPerimeter=0;" parent="1" source="15" edge="1">
                    <mxGeometry width="50" height="50" relative="1" as="geometry">
                        <mxPoint x="1250" y="350" as="sourcePoint"/>
                        <mxPoint x="220" y="330" as="targetPoint"/>
                        <Array as="points">
                            <mxPoint x="1454" y="350"/>
                            <mxPoint x="220" y="350"/>
                        </Array>
                    </mxGeometry>
                </mxCell>
                <mxCell id="165" value="" style="endArrow=classic;html=1;exitX=0.877;exitY=-0.04;exitDx=0;exitDy=0;exitPerimeter=0;entryX=0;entryY=0.5;entryDx=0;entryDy=0;" parent="1" source="91" target="15" edge="1">
                    <mxGeometry width="50" height="50" relative="1" as="geometry">
                        <mxPoint x="540" y="1350" as="sourcePoint"/>
                        <mxPoint x="-90" y="1330" as="targetPoint"/>
                        <Array as="points">
                            <mxPoint x="729" y="1330"/>
                            <mxPoint x="-50" y="1330"/>
                            <mxPoint x="-50" y="140"/>
                        </Array>
                    </mxGeometry>
                </mxCell>
                <mxCell id="166" value="" style="endArrow=classic;html=1;entryX=0.199;entryY=1.101;entryDx=0;entryDy=0;entryPerimeter=0;" parent="1" target="22" edge="1">
                    <mxGeometry width="50" height="50" relative="1" as="geometry">
                        <mxPoint x="730" y="570" as="sourcePoint"/>
                        <mxPoint x="600" y="400" as="targetPoint"/>
                        <Array as="points">
                            <mxPoint x="730" y="520"/>
                            <mxPoint x="128" y="520"/>
                        </Array>
                    </mxGeometry>
                </mxCell>
                <mxCell id="167" value="" style="endArrow=classic;html=1;" parent="1" edge="1">
                    <mxGeometry width="50" height="50" relative="1" as="geometry">
                        <mxPoint x="600" y="660" as="sourcePoint"/>
                        <mxPoint x="160" y="1162" as="targetPoint"/>
                        <Array as="points">
                            <mxPoint x="600" y="1120"/>
                            <mxPoint x="160" y="1120"/>
                        </Array>
                    </mxGeometry>
                </mxCell>
                <mxCell id="168" value="" style="endArrow=classic;html=1;exitX=0.54;exitY=0.966;exitDx=0;exitDy=0;exitPerimeter=0;" parent="1" source="27" edge="1">
                    <mxGeometry width="50" height="50" relative="1" as="geometry">
                        <mxPoint x="550" y="780" as="sourcePoint"/>
                        <mxPoint x="140" y="960" as="targetPoint"/>
                        <Array as="points">
                            <mxPoint x="474" y="940"/>
                            <mxPoint x="140" y="940"/>
                        </Array>
                    </mxGeometry>
                </mxCell>
                <mxCell id="169" value="" style="endArrow=classic;html=1;entryX=0.09;entryY=1.034;entryDx=0;entryDy=0;entryPerimeter=0;" parent="1" target="91" edge="1">
                    <mxGeometry width="50" height="50" relative="1" as="geometry">
                        <mxPoint x="718" y="1560" as="sourcePoint"/>
                        <mxPoint x="600" y="1400" as="targetPoint"/>
                        <Array as="points">
                            <mxPoint x="718" y="1480"/>
                            <mxPoint x="147" y="1480"/>
                        </Array>
                    </mxGeometry>
                </mxCell>
                <mxCell id="171" value="" style="endArrow=classic;html=1;exitX=0;exitY=0.5;exitDx=0;exitDy=0;entryX=0;entryY=0.5;entryDx=0;entryDy=0;" parent="1" source="144" target="27" edge="1">
                    <mxGeometry width="50" height="50" relative="1" as="geometry">
                        <mxPoint x="550" y="1780" as="sourcePoint"/>
                        <mxPoint x="600" y="1730" as="targetPoint"/>
                        <Array as="points">
                            <mxPoint x="-90" y="1800"/>
                            <mxPoint x="-90" y="620"/>
                        </Array>
                    </mxGeometry>
                </mxCell>
                <mxCell id="172" value="" style="endArrow=classic;html=1;entryX=0;entryY=0.5;entryDx=0;entryDy=0;" parent="1" target="46" edge="1">
                    <mxGeometry width="50" height="50" relative="1" as="geometry">
                        <mxPoint x="260" y="1840" as="sourcePoint"/>
                        <mxPoint x="300" y="1840" as="targetPoint"/>
                        <Array as="points">
                            <mxPoint x="260" y="1880"/>
                            <mxPoint x="-150" y="1880"/>
                            <mxPoint x="-150" y="780"/>
                        </Array>
                    </mxGeometry>
                </mxCell>
                <mxCell id="173" value="" style="endArrow=classic;html=1;exitX=0.819;exitY=-0.04;exitDx=0;exitDy=0;exitPerimeter=0;" parent="1" source="100" edge="1">
                    <mxGeometry width="50" height="50" relative="1" as="geometry">
                        <mxPoint x="780" y="1590" as="sourcePoint"/>
                        <mxPoint x="170" y="660" as="targetPoint"/>
                        <Array as="points">
                            <mxPoint x="883" y="710"/>
                            <mxPoint x="170" y="710"/>
                        </Array>
                    </mxGeometry>
                </mxCell>
                <mxCell id="174" value="" style="endArrow=classic;html=1;exitX=0.904;exitY=-0.016;exitDx=0;exitDy=0;exitPerimeter=0;" parent="1" source="100" edge="1">
                    <mxGeometry width="50" height="50" relative="1" as="geometry">
                        <mxPoint x="970" y="1550" as="sourcePoint"/>
                        <mxPoint x="160" y="180" as="targetPoint"/>
                        <Array as="points">
                            <mxPoint x="970" y="210"/>
                            <mxPoint x="160" y="210"/>
                        </Array>
                    </mxGeometry>
                </mxCell>
            </root>
        </mxGraphModel>
    </diagram>
</mxfile>